<svg xmlns="http://www.w3.org/2000/svg" version="1.1" xmlns:xlink="http://www.w3.org/1999/xlink" xmlns:svgjs="http://svgjs.dev/svgjs" width="1000" height="1125" viewBox="0 0 1000 1125"><g transform="matrix(1,0,0,1,1.7053025658242404e-13,0)"><svg viewBox="0 0 320 360" data-background-color="#ffffff" preserveAspectRatio="xMidYMid meet" height="1125" width="1000" xmlns="http://www.w3.org/2000/svg" xmlns:xlink="http://www.w3.org/1999/xlink"><g id="tight-bounds" transform="matrix(1,0,0,1,0,0)"><svg viewBox="0 0 320 360" height="360" width="320"><g><svg></svg></g><g><svg viewBox="0 0 320 360" height="360" width="320"><g><path xmlns="http://www.w3.org/2000/svg" d="M20.961 227.22l3.726 4.658-1.863-6.056c-0.466-2.795-3.726 0.466-1.863 1.398M25.153 224.425c1.397 2.329 2.795 4.658 2.795 6.987 0 3.261 2.795 4.658 5.123 5.589-3.261-3.726-5.124-13.974-7.918-12.576M204.017 26.929c7.918 0 15.371-0.932 23.756 0.931 20.495 5.124 37.729 15.371 49.374 29.811l32.606 52.169c1.397 13.042 4.192 27.482 3.726 43.319 3.261 0 2.795-4.658 6.521-5.59-3.726 9.316-5.59 20.961-6.521 34.469-2.329-7.453 0-18.632 0.466-24.687-3.261 5.124-5.124 1.397-5.124-0.932 0.466-3.726-1.397-3.261-2.795-4.658-5.124-4.658-8.384-9.782-12.11-17.7 2.329-6.055 2.795-14.905-4.658-19.563-2.329-1.397-5.124-3.726-6.521-7.453-1.863-5.124-5.124-11.179-4.193-19.097 0.466-2.329-6.987 5.124-11.179 1.863-18.166-12.576-36.332-27.016-58.224-39.127-11.645 0-20.029-4.192-24.221-9.316-3.726-4.658-0.932-10.713 4.658-11.179 3.261 0 6.987-0.932 9.782 0.932 0.466-1.863 2.329-4.192 4.657-4.192M157.904 16.215l0.932 0.466c4.658 0.932 6.987 7.453 12.11 5.124 0 3.261 0.466 6.521-0.466 8.85-1.397 3.726-5.59 3.726-8.85 3.726-31.208-1.863-49.374 11.179-68.471 22.358-5.124 3.261-10.713 5.59-14.906 9.782-20.029 18.632-41.921 35.866-47.045 70.335l-4.192 38.195c-0.466 4.192-5.124 8.384-4.192 13.508l3.26 22.824c-3.261-3.261-5.124 0.932-4.192 2.795 0.466 1.397 2.329 6.055 5.124 1.863 3.726 6.987 7.453 20.495 12.576 26.55 15.837 18.632 36.332 35.4 53.101 52.169 4.192-0.932 7.453-0.932 8.384-3.727 1.397 2.795-1.397 5.59-3.726 6.056 7.453 4.658 15.837 8.85 27.016 9.781 14.44 0.932 27.948 3.261 40.524 6.522 6.521-1.863 13.042-2.795 20.029-3.261 2.329 0 3.726-3.726 6.521-4.658l0.466-4.658c2.795 4.192 2.329-1.397 0.466-4.192 3.261 2.795 4.192 5.124 5.589 6.987 0-1.397 3.726-6.521 3.727-0.466l0.931-6.055c1.397-0.932 1.863 5.124 3.261 0.931 1.397-4.192 4.192-0.932 6.987-2.329-0.932 1.863-0.466 5.59 2.794 3.261l3.727-3.261c2.329 5.59 6.055 3.261 7.918 2.329 20.495-13.042 40.99-28.413 60.553-43.784l-0.466 6.055 2.329-7.453c2.329 2.329 4.192 0.466 5.124-0.931 2.795-4.658 6.521-9.316 12.577-13.508-7.453 20.029-16.303 35.866-27.482 48.908l-4.658 5.59c0 3.261-0.932 7.453-4.658 7.918-1.863 0.466-5.59-0.932-8.384 1.863-1.397 1.863 3.261 5.59-0.466 2.795-3.261-2.329-6.521 0-10.248 0.932-2.795 0.932 1.863 3.726 2.795 5.589 0.932 1.863 1.863 3.726 1.398 6.056l-5.124-5.59c-6.055 3.261-9.782 9.316-14.906 13.974-2.329 1.863-1.397 5.124-1.397 7.918-3.261 0-6.987-0.932-8.85 0.932-1.397 1.863-0.932 4.658-0.932 7.453-4.658-0.466-5.124-7.453-9.315-6.056-4.192 0.932-8.85 1.397-12.577 3.727 2.795 5.59-4.658 2.329-3.726 3.26-6.987-4.192-13.042-7.453-20.495-4.658-15.837-5.124-35.4-2.795-49.84-0.931 0-2.329 0.466-4.658-0.466-5.124-0.932 2.329-3.726 1.397-3.26 1.397-8.85-6.055-17.7-9.782-27.016-14.905-8.384 0.932-16.303-3.261-18.632-5.59-6.521-6.055-13.974-2.795-20.029-4.192-13.042-3.261-17.7-16.769-19.098-26.084-0.932-4.658-4.658-6.521-6.055-6.056-6.055-19.563-15.371-37.263-22.824-55.429-1.863-4.658-1.397-9.316-1.397-14.44 2.329 0.932 4.658 0.466 4.192-2.794-2.329-15.371-7.918-27.016-13.974-38.195 3.261-15.837 3.726-34.469 11.179-48.443 6.521-12.576 18.632-19.098 27.016-29.811 2.795-3.726 2.795-8.85 5.59-12.11 9.316-9.316 18.632-19.098 28.879-27.482 4.658-3.726 10.247 0 17.234-1.397 2.329-8.384 11.645-15.837 20.495-13.508 3.726 0.932 11.179-8.85 13.508-9.782 3.726-1.397 1.863 3.726 1.863 6.987 8.85-6.987 20.961-10.713 32.14-14.906" fill="#dc4138" fill-rule="nonzero" stroke="none" stroke-width="1" stroke-linecap="butt" stroke-linejoin="miter" stroke-miterlimit="10" stroke-dasharray="" stroke-dashoffset="0" font-family="none" font-weight="none" font-size="none" text-anchor="none" style="mix-blend-mode: normal" data-fill-palette-color="tertiary"></path></g><g transform="matrix(1,0,0,1,64,142.927296)"><svg viewBox="0 0 192 74.145408" height="74.145408" width="192"><g><svg viewBox="0 0 192 74.145408" height="74.145408" width="192"><g transform="matrix(1,0,0,1,0,44.814855340980195)"><svg viewBox="0 0 192 29.330552659019812" height="29.330552659019812" width="192"><g id="textblocktransform"><svg viewBox="0 0 192 29.330552659019812" height="29.330552659019812" width="192" id="textblock"><g><svg viewBox="0 0 192 29.330552659019812" height="29.330552659019812" width="192"><g transform="matrix(1,0,0,1,0,0)"><svg width="192" viewBox="2.759999990463257 -37.959999084472656 327.75 50.06999969482422" height="29.330552659019812" data-palette-color="url(#38ad88aa-02f4-458d-80aa-ad6f47f699d5)"></svg></g></svg></g></svg></g></svg></g><g transform="matrix(1,0,0,1,75.73517285586324,0)"><svg viewBox="0 0 40.52965428827353 40.534823774765385" height="40.534823774765385" width="40.52965428827353"><g><svg xmlns="http://www.w3.org/2000/svg" xmlns:xlink="http://www.w3.org/1999/xlink" version="1.1" x="0" y="0" viewBox="0.46199989318847656 0.34700000286102295 47.07499694824219 47.08100128173828" enable-background="new 0 0 48 48" xml:space="preserve" height="40.534823774765385" width="40.52965428827353" class="icon-icon-0" data-fill-palette-color="accent" id="icon-0"></svg></g></svg></g><g></g></svg></g></svg></g></svg></g><defs></defs><mask id="4ad435c7-4dd2-424a-916e-7ca72d1ca98d"><g id="SvgjsG1004"><svg viewBox="0 0 320 360" height="360" width="320"><g><svg></svg></g><g><svg viewBox="0 0 320 360" height="360" width="320"><g></g><g transform="matrix(1,0,0,1,64,142.927296)"><svg viewBox="0 0 192 74.145408" height="74.145408" width="192"><g><svg viewBox="0 0 192 74.145408" height="74.145408" width="192"><g transform="matrix(1,0,0,1,0,44.814855340980195)"><svg viewBox="0 0 192 29.330552659019812" height="29.330552659019812" width="192"><g id="SvgjsG1003"><svg viewBox="0 0 192 29.330552659019812" height="29.330552659019812" width="192" id="SvgjsSvg1002"><g><svg viewBox="0 0 192 29.330552659019812" height="29.330552659019812" width="192"><g transform="matrix(1,0,0,1,0,0)"><svg width="192" viewBox="2.759999990463257 -37.959999084472656 327.75 50.06999969482422" height="29.330552659019812" data-palette-color="url(#38ad88aa-02f4-458d-80aa-ad6f47f699d5)"><path d="M14.28-10.11L18.12-24.85Q18.19-25.12 18.53-25.2L18.53-25.2Q20.51-25.63 22.58-26.1 24.66-26.56 26.56-27.25L26.56-27.25Q26.9-27.25 26.9-27L26.9-27 29.39-10.35 34.06-27Q34.16-27.25 34.42-27.25L34.42-27.25Q34.5-27.25 34.52-27.23 34.55-27.22 34.62-27.22L34.62-27.22Q36.45-26.51 38.38-26.06 40.31-25.61 42.21-25.2L42.21-25.2Q42.68-25.1 42.68-24.66L42.68-24.66Q42.68-24.34 42.38-23.68L42.38-23.68 34.52-1.9Q34.33-1.49 34.18-1.21 34.03-0.93 33.89-0.77 33.74-0.61 33.57-0.52 33.4-0.44 33.15-0.39L33.15-0.39Q31.3 0 29.39 0.46 27.49 0.93 25.44 1.64L25.44 1.64Q25.39 1.64 25.37 1.65 25.34 1.66 25.32 1.66L25.32 1.66 25.15 1.66Q25.02 1.66 24.95 1.57 24.88 1.49 24.85 1.42L24.85 1.42Q24.58 0.37 24.24-1.2 23.9-2.76 23.51-4.66 23.12-6.57 22.68-8.74 22.24-10.91 21.78-13.21L21.78-13.21 18.68-2.29Q18.55-1.86 18.42-1.57 18.29-1.29 18.12-1.14 17.94-0.98 17.75-0.9 17.55-0.83 17.31-0.78L17.31-0.78Q15.45-0.42 13.55 0.06 11.65 0.54 9.59 1.25L9.59 1.25Q9.55 1.25 9.52 1.26 9.5 1.27 9.47 1.27L9.47 1.27 9.3 1.27Q9.18 1.27 9.09 1.18 9.01 1.1 9.01 1.03L9.01 1.03Q8.67-0.05 8.23-1.7 7.79-3.34 7.29-5.38 6.79-7.42 6.25-9.74 5.71-12.06 5.15-14.45 4.59-16.85 4.04-19.2 3.49-21.56 2.98-23.68L2.98-23.68Q2.81-24.07 2.78-24.33 2.76-24.58 2.76-24.76L2.76-24.76Q2.76-25.1 3.15-25.2L3.15-25.2Q5.05-25.61 7.1-26.06 9.16-26.51 10.99-27.22L10.99-27.22Q11.06-27.25 11.21-27.25L11.21-27.25Q11.52-27.25 11.55-27L11.55-27 14.28-10.11ZM58.4-27.25L58.4-27.25Q60.72-27.25 62.61-26.38 64.5-25.51 65.85-24.13 67.21-22.75 67.94-21.04 68.67-19.34 68.67-17.63L68.67-17.63Q68.67-16.11 67.75-14.59 66.82-13.06 65.15-11.84 63.47-10.62 61.13-9.86 58.79-9.11 55.98-9.11L55.98-9.11Q54.51-9.11 52.9-9.4L52.9-9.4Q53-8.35 53.51-7.59 54.03-6.84 54.81-6.35 55.59-5.86 56.58-5.63 57.57-5.4 58.62-5.4L58.62-5.4Q59.79-5.4 60.87-5.6 61.96-5.81 62.96-6.15 63.96-6.49 64.89-6.91 65.82-7.32 66.65-7.74L66.65-7.74Q66.87-7.79 67.03-7.82 67.19-7.86 67.33-7.86L67.33-7.86Q67.33-7.86 67.32-7.47 67.31-7.08 67.31-6.37 67.31-5.66 67.29-4.66 67.28-3.66 67.26-2.44L67.26-2.44Q67.33-2.32 67.36-2.2 67.38-2.08 67.38-2L67.38-2Q67.38-1.71 66.84-1.37 66.31-1.03 65.44-0.66 64.57-0.29 63.46 0.05 62.35 0.39 61.2 0.67 60.06 0.95 58.98 1.11 57.91 1.27 57.1 1.27L57.1 1.27Q54.47 1.27 51.99 0.35 49.51-0.56 47.59-2.27 45.68-3.98 44.53-6.42 43.38-8.86 43.38-11.91L43.38-11.91Q43.38-15.11 44.48-17.91 45.58-20.7 47.57-22.78 49.56-24.85 52.32-26.05 55.08-27.25 58.4-27.25ZM58.1-20.75L58.1-20.75Q57.1-20.75 56.26-20.32 55.42-19.9 54.72-19.1 54.03-18.31 53.51-17.2 53-16.09 52.68-14.75L52.68-14.75Q55.2-15.19 56.86-15.67 58.52-16.16 59.52-16.66 60.52-17.16 60.94-17.66 61.35-18.16 61.35-18.63L61.35-18.63Q61.35-19.07 61.02-19.46 60.69-19.85 60.2-20.14 59.71-20.43 59.14-20.59 58.57-20.75 58.1-20.75ZM82.83-17.43L82.03-7.96Q82.27-7.47 82.72-6.97 83.17-6.47 83.77-6.05 84.37-5.64 85.08-5.38 85.79-5.13 86.54-5.13L86.54-5.13Q87.59-5.13 88.52-5.94 89.45-6.76 90.14-8.14 90.84-9.52 91.23-11.29 91.62-13.06 91.62-14.97L91.62-14.97Q91.62-16.14 91.41-17.19 91.21-18.24 90.77-19.02 90.33-19.8 89.63-20.26 88.94-20.73 87.96-20.73L87.96-20.73Q86.37-20.73 85.05-19.8 83.74-18.87 82.83-17.43L82.83-17.43ZM72.94 1.2L72.94 1.2Q72.6 1.27 72.41 1.27L72.41 1.27Q71.63 1.27 71.63 0.34L71.63 0.34Q71.63 0.22 71.64 0.1 71.65-0.02 71.67-0.17L71.67-0.17 74.51-34.72Q74.51-34.79 74.52-34.86 74.53-34.94 74.53-34.99L74.53-34.99Q74.53-35.08 74.52-35.16 74.51-35.23 74.51-35.28L74.51-35.28Q74.51-35.5 74.67-35.63 74.82-35.77 75.48-35.94L75.48-35.94 82.34-37.57Q82.61-37.62 83.05-37.79 83.49-37.96 83.91-37.96L83.91-37.96Q84.22-37.96 84.5-37.82 84.79-37.67 84.79-37.26L84.79-37.26Q84.79-37.21 84.77-37.16 84.76-37.11 84.76-37.06L84.76-37.06Q84.74-36.94 84.64-35.99 84.54-35.03 84.42-33.68 84.3-32.32 84.15-30.77 84-29.22 83.88-27.87 83.76-26.51 83.66-25.56 83.56-24.61 83.54-24.49L83.54-24.49Q85.32-25.66 87.23-26.45 89.13-27.25 91.04-27.25L91.04-27.25Q93.55-27.25 95.38-26.21 97.21-25.17 98.41-23.45 99.6-21.73 100.18-19.48 100.75-17.24 100.75-14.84L100.75-14.84Q100.75-12.92 100.4-10.97 100.04-9.03 99.37-7.25 98.7-5.47 97.69-3.91 96.67-2.34 95.37-1.2 94.06-0.05 92.45 0.61 90.84 1.27 88.96 1.27L88.96 1.27Q86.69 1.27 84.81 0.27 82.93-0.73 81.32-2.32L81.32-2.32Q81.27-1.73 81.25-1.39 81.22-1.05 81.09-0.87 80.95-0.68 80.68-0.57 80.41-0.46 79.88-0.34L79.88-0.34Q79.61-0.27 78.94-0.11 78.27 0.05 77.33 0.26 76.39 0.46 75.25 0.71 74.12 0.95 72.94 1.2ZM132.63-8.33L133.14-13.89Q133.22-14.67 133.3-15.53 133.39-16.38 133.51-17.31L133.51-17.31Q132.95-18.77 131.92-19.69 130.9-20.61 129.36-20.61L129.36-20.61Q127.85-20.61 126.8-19.74 125.75-18.87 125.11-17.6 124.48-16.33 124.2-14.93 123.92-13.53 123.92-12.45L123.92-12.45Q123.92-11.13 124.07-9.84 124.23-8.54 124.59-7.5 124.94-6.45 125.53-5.8 126.11-5.15 126.99-5.15L126.99-5.15Q129.14-5.22 130.48-6.13 131.83-7.03 132.63-8.33L132.63-8.33ZM144.81-36.84L141.66-2.47Q141.66-2.42 141.65-2.36 141.64-2.29 141.64-2.25L141.64-2.25Q141.64-2.12 141.65-2.05 141.66-1.98 141.66-1.9L141.66-1.9Q141.66-1.68 141.51-1.55 141.35-1.42 140.69-1.25L140.69-1.25 134.15 0.88Q133.88 0.98 133.44 1.12 133 1.27 132.58 1.27L132.58 1.27Q132.24 1.27 131.98 1.1 131.73 0.93 131.73 0.46L131.73 0.46Q131.73 0.02 131.74-0.24 131.75-0.51 131.76-0.74 131.78-0.98 131.81-1.25 131.85-1.51 131.9-1.95L131.9-1.95Q130.07-0.49 128.13 0.39 126.19 1.27 124.04 1.27L124.04 1.27Q121.69 1.27 119.88 0.16 118.06-0.95 116.81-2.82 115.57-4.69 114.92-7.09 114.27-9.5 114.27-12.11L114.27-12.11Q114.27-15.5 115.38-18.3 116.49-21.09 118.4-23.08 120.3-25.07 122.84-26.16 125.38-27.25 128.24-27.25L128.24-27.25Q129.78-27.25 131.18-26.44 132.58-25.63 133.83-24.37L133.83-24.37Q133.9-25.56 134-26.97 134.1-28.37 134.19-29.82 134.29-31.27 134.39-32.69 134.49-34.11 134.56-35.28L134.56-35.28Q134.56-35.5 134.72-35.63 134.88-35.77 135.54-35.94L135.54-35.94 142.4-37.57Q142.67-37.62 143.11-37.79 143.54-37.96 143.96-37.96L143.96-37.96Q144.28-37.96 144.56-37.82 144.84-37.67 144.84-37.26L144.84-37.26Q144.84-37.21 144.83-37.05 144.81-36.89 144.81-36.84L144.81-36.84ZM161.66-27.25L161.66-27.25Q163.98-27.25 165.87-26.38 167.76-25.51 169.12-24.13 170.47-22.75 171.2-21.04 171.94-19.34 171.94-17.63L171.94-17.63Q171.94-16.11 171.01-14.59 170.08-13.06 168.41-11.84 166.74-10.62 164.39-9.86 162.05-9.11 159.24-9.11L159.24-9.11Q157.78-9.11 156.16-9.4L156.16-9.4Q156.26-8.35 156.77-7.59 157.29-6.84 158.07-6.35 158.85-5.86 159.84-5.63 160.83-5.4 161.88-5.4L161.88-5.4Q163.05-5.4 164.14-5.6 165.22-5.81 166.22-6.15 167.22-6.49 168.15-6.91 169.08-7.32 169.91-7.74L169.91-7.74Q170.13-7.79 170.29-7.82 170.45-7.86 170.59-7.86L170.59-7.86Q170.59-7.86 170.58-7.47 170.57-7.08 170.57-6.37 170.57-5.66 170.56-4.66 170.54-3.66 170.52-2.44L170.52-2.44Q170.59-2.32 170.62-2.2 170.64-2.08 170.64-2L170.64-2Q170.64-1.71 170.1-1.37 169.57-1.03 168.7-0.66 167.83-0.29 166.72 0.05 165.61 0.39 164.47 0.67 163.32 0.95 162.24 1.11 161.17 1.27 160.36 1.27L160.36 1.27Q157.73 1.27 155.25 0.35 152.77-0.56 150.85-2.27 148.94-3.98 147.79-6.42 146.64-8.86 146.64-11.91L146.64-11.91Q146.64-15.11 147.74-17.91 148.84-20.7 150.83-22.78 152.82-24.85 155.58-26.05 158.34-27.25 161.66-27.25ZM161.36-20.75L161.36-20.75Q160.36-20.75 159.52-20.32 158.68-19.9 157.98-19.1 157.29-18.31 156.77-17.2 156.26-16.09 155.94-14.75L155.94-14.75Q158.46-15.19 160.12-15.67 161.78-16.16 162.78-16.66 163.78-17.16 164.2-17.66 164.61-18.16 164.61-18.63L164.61-18.63Q164.61-19.07 164.28-19.46 163.95-19.85 163.46-20.14 162.98-20.43 162.4-20.59 161.83-20.75 161.36-20.75ZM192.51-27L192.51-27Q192.61-27.25 192.88-27.25L192.88-27.25Q192.93-27.25 192.98-27.23 193.03-27.22 193.08-27.22L193.08-27.22Q194.91-26.51 196.84-26.06 198.76-25.61 200.67-25.2L200.67-25.2Q201.13-25.1 201.13-24.66L201.13-24.66Q201.13-24.34 200.84-23.68L200.84-23.68 190.78-2.29Q190.59-1.86 190.44-1.59 190.29-1.32 190.15-1.15 190-0.98 189.83-0.9 189.66-0.83 189.41-0.78L189.41-0.78Q187.56-0.42 185.65 0.06 183.75 0.54 181.7 1.25L181.7 1.25Q181.65 1.25 181.63 1.26 181.6 1.27 181.58 1.27L181.58 1.27 181.41 1.27Q181.28 1.27 181.21 1.18 181.14 1.1 181.11 1.03L181.11 1.03Q180.75-0.02 180.27-1.68 179.79-3.34 179.23-5.4 178.67-7.45 178.06-9.77 177.45-12.08 176.82-14.48 176.18-16.87 175.56-19.23 174.94-21.58 174.35-23.68L174.35-23.68Q174.13-24.44 174.13-24.76L174.13-24.76Q174.13-25.1 174.52-25.2L174.52-25.2Q176.43-25.61 178.48-26.06 180.53-26.51 182.36-27.22L182.36-27.22Q182.43-27.25 182.58-27.25L182.58-27.25Q182.9-27.25 182.92-27L182.92-27 186.14-10.6Q186.26-10.89 186.56-11.66 186.85-12.43 187.27-13.5 187.68-14.58 188.18-15.87 188.68-17.16 189.21-18.51 189.73-19.85 190.24-21.18 190.76-22.51 191.21-23.66 191.66-24.8 192-25.68 192.34-26.56 192.51-27ZM215 1.27L215 1.27Q211.55 1.27 208.95 0.15 206.35-0.98 204.6-2.84 202.84-4.71 201.96-7.14 201.08-9.57 201.08-12.18L201.08-12.18Q201.08-14.79 201.94-17.15 202.79-19.51 204.33-21.37 205.87-23.24 208.01-24.5 210.16-25.76 212.75-26.2L212.75-26.2Q213.14-26.22 213.14-26.37L213.14-26.37Q213.14-26.64 213.08-26.87 213.02-27.1 213.02-27.27L213.02-27.27Q213.02-27.54 213.12-27.64 213.21-27.73 213.34-27.73L213.34-27.73Q218-27.73 221.27-26.67 224.54-25.61 226.59-23.78 228.64-21.95 229.57-19.46 230.5-16.97 230.5-14.11L230.5-14.11Q230.5-10.47 229.28-7.62 228.06-4.76 225.95-2.78 223.84-0.81 221.02 0.23 218.2 1.27 215 1.27ZM210.48-12.45L210.48-12.45Q210.48-11.13 210.76-9.84 211.04-8.54 211.69-7.5 212.34-6.45 213.39-5.8 214.44-5.15 216-5.15L216-5.15Q217.12-5.2 217.96-5.65 218.81-6.1 219.42-6.82 220.03-7.54 220.43-8.45 220.83-9.35 221.06-10.31 221.3-11.28 221.39-12.21 221.49-13.13 221.49-13.89L221.49-13.89Q221.49-15.16 221.11-16.38 220.73-17.6 220-18.53 219.27-19.46 218.18-20.03 217.1-20.61 215.68-20.61L215.68-20.61Q214.22-20.61 213.21-19.74 212.21-18.87 211.62-17.6 211.02-16.33 210.75-14.93 210.48-13.53 210.48-12.45ZM235.31-20.65L235.31-20.65Q235.6-24 235.78-27.27 235.97-30.54 236.19-33.98L236.19-33.98Q236.23-34.79 236.34-35.1 236.45-35.4 236.89-35.5L236.89-35.5Q239.16-35.91 241.45-36.34 243.73-36.77 246.02-37.48L246.02-37.48Q246.1-37.5 246.24-37.5L246.24-37.5Q246.51-37.5 246.51-37.26L246.51-37.26 243.34-2.39 243.34-1.98Q243.34-1.76 243.17-1.62 243-1.49 242.36-1.32L242.36-1.32 235.97 1.03Q235.7 1.15 235.26 1.28 234.82 1.42 234.4 1.42L234.4 1.42Q234.06 1.42 233.81 1.25 233.55 1.07 233.55 0.66L233.55 0.66 233.55 0.51Q233.74-1.95 233.93-4.31 234.11-6.67 234.32-9.18 234.53-11.69 234.77-14.5 235.01-17.31 235.31-20.65ZM259.79-17.41L259.72-17.04Q259.57-14.7 259.46-13.23 259.35-11.77 259.28-10.85 259.21-9.94 259.16-9.41 259.11-8.89 259.08-8.42L259.08-8.42Q259.65-6.96 260.74-6.04 261.84-5.13 263.38-5.13L263.38-5.13Q264.72-5.13 265.74-5.97 266.75-6.81 267.42-8.15 268.09-9.5 268.43-11.16 268.78-12.82 268.78-14.45L268.78-14.45Q268.78-15.8 268.54-16.94 268.31-18.09 267.85-18.93 267.38-19.78 266.69-20.25 265.99-20.73 265.04-20.73L265.04-20.73Q264.26-20.73 263.49-20.42 262.72-20.12 262.01-19.64 261.31-19.17 260.73-18.57 260.16-17.97 259.79-17.41L259.79-17.41ZM260.21-24.19L260.21-24.19Q262.26-25.59 264.5-26.42 266.75-27.25 269.19-27.25L269.19-27.25Q271.49-27.25 273.16-26.31 274.83-25.37 275.93-23.77 277.03-22.17 277.55-20.09 278.08-18.02 278.08-15.75L278.08-15.75Q278.08-13.77 277.69-11.74 277.3-9.72 276.54-7.82 275.78-5.93 274.66-4.27 273.54-2.61 272.08-1.38 270.63-0.15 268.85 0.56 267.07 1.27 264.99 1.27L264.99 1.27Q263.16 1.27 261.49 0.54 259.82-0.2 258.35-1.37L258.35-1.37Q258.35-1.25 258.29-0.48 258.23 0.29 258.13 1.39 258.03 2.49 257.91 3.75 257.79 5 257.69 6.1 257.59 7.2 257.53 7.97 257.47 8.74 257.47 8.86L257.47 8.86Q257.47 9.06 257.48 9.19 257.5 9.33 257.5 9.45L257.5 9.45Q257.5 9.64 257.31 9.78 257.13 9.91 256.5 10.08L256.5 10.08 250.08 11.72Q249.81 11.79 249.37 11.95 248.93 12.11 248.51 12.11L248.51 12.11Q248.17 12.11 247.91 11.94 247.66 11.77 247.66 11.3L247.66 11.3 250.64-24.44Q250.71-25.24 250.82-25.55 250.93-25.85 251.37-25.95L251.37-25.95Q253.59-26.39 255.93-26.84 258.28-27.29 260.5-28L260.5-28Q260.7-28 260.73-27.94 260.77-27.88 260.77-27.76L260.77-27.76Q260.77-27.71 260.76-27.61 260.74-27.51 260.68-27.17 260.62-26.83 260.51-26.14 260.4-25.44 260.21-24.19ZM295.7-27.25L295.7-27.25Q298.02-27.25 299.91-26.38 301.81-25.51 303.16-24.13 304.52-22.75 305.25-21.04 305.98-19.34 305.98-17.63L305.98-17.63Q305.98-16.11 305.05-14.59 304.13-13.06 302.45-11.84 300.78-10.62 298.44-9.86 296.09-9.11 293.29-9.11L293.29-9.11Q291.82-9.11 290.21-9.4L290.21-9.4Q290.31-8.35 290.82-7.59 291.33-6.84 292.11-6.35 292.89-5.86 293.88-5.63 294.87-5.4 295.92-5.4L295.92-5.4Q297.09-5.4 298.18-5.6 299.27-5.81 300.27-6.15 301.27-6.49 302.2-6.91 303.12-7.32 303.95-7.74L303.95-7.74Q304.17-7.79 304.33-7.82 304.49-7.86 304.64-7.86L304.64-7.86Q304.64-7.86 304.63-7.47 304.61-7.08 304.61-6.37 304.61-5.66 304.6-4.66 304.59-3.66 304.56-2.44L304.56-2.44Q304.64-2.32 304.66-2.2 304.69-2.08 304.69-2L304.69-2Q304.69-1.71 304.15-1.37 303.61-1.03 302.75-0.66 301.88-0.29 300.77 0.05 299.66 0.39 298.51 0.67 297.36 0.95 296.29 1.11 295.21 1.27 294.41 1.27L294.41 1.27Q291.77 1.27 289.29 0.35 286.82-0.56 284.9-2.27 282.98-3.98 281.84-6.42 280.69-8.86 280.69-11.91L280.69-11.91Q280.69-15.11 281.79-17.91 282.89-20.7 284.87-22.78 286.86-24.85 289.62-26.05 292.38-27.25 295.7-27.25ZM295.41-20.75L295.41-20.75Q294.41-20.75 293.57-20.32 292.72-19.9 292.03-19.1 291.33-18.31 290.82-17.2 290.31-16.09 289.99-14.75L289.99-14.75Q292.5-15.19 294.16-15.67 295.82-16.16 296.83-16.66 297.83-17.16 298.24-17.66 298.66-18.16 298.66-18.63L298.66-18.63Q298.66-19.07 298.33-19.46 298-19.85 297.51-20.14 297.02-20.43 296.45-20.59 295.87-20.75 295.41-20.75ZM330.51-27.44L329-19.87Q328.49-19.92 327.85-19.98 327.22-20.04 326.51-20.04L326.51-20.04Q325.44-20.04 324.33-19.86 323.21-19.68 322.26-19.14 321.31-18.6 320.63-17.66 319.94-16.72 319.75-15.23L319.75-15.23Q319.58-13.43 319.47-12.27 319.36-11.11 319.31-10.36 319.26-9.62 319.22-9.17 319.19-8.72 319.16-8.33L319.16-8.33Q319.16-8.23 319.13-7.79 319.09-7.35 319.02-6.76 318.94-6.18 318.88-5.49 318.82-4.81 318.75-4.22 318.67-3.64 318.64-3.2 318.6-2.76 318.6-2.66L318.6-2.66Q318.6-2.47 318.61-2.33 318.62-2.2 318.62-2.08L318.62-2.08Q318.62-1.88 318.44-1.75 318.26-1.61 317.62-1.44L317.62-1.44 311.15 0.88Q310.89 0.98 310.45 1.12 310.01 1.27 309.59 1.27L309.59 1.27Q309.25 1.27 308.99 1.1 308.74 0.93 308.74 0.51L308.74 0.51 310.84-23.68Q310.91-24.49 311.02-24.79 311.13-25.1 311.57-25.2L311.57-25.2Q313.79-25.63 316.16-26.09 318.53-26.54 320.75-27.25L320.75-27.25Q320.94-27.25 320.98-27.19 321.02-27.12 321.02-27L321.02-27Q321.02-26.95 321.01-26.86 320.99-26.76 320.93-26.42 320.87-26.07 320.76-25.38 320.65-24.68 320.46-23.44L320.46-23.44Q321.58-24.32 322.93-25.05 324.29-25.78 325.66-26.31 327.02-26.83 328.29-27.14 329.56-27.44 330.51-27.44L330.51-27.44Z" opacity="1" transform="matrix(1,0,0,1,0,0)" fill="white" class="wordmark-text-0" id="SvgjsPath1001"></path></svg></g></svg></g></svg></g></svg></g><g transform="matrix(1,0,0,1,75.73517285586324,0)"><svg viewBox="0 0 40.52965428827353 40.534823774765385" height="40.534823774765385" width="40.52965428827353"><g><svg xmlns="http://www.w3.org/2000/svg" xmlns:xlink="http://www.w3.org/1999/xlink" version="1.1" x="0" y="0" viewBox="0.46199989318847656 0.34700000286102295 47.07499694824219 47.08100128173828" enable-background="new 0 0 48 48" xml:space="preserve" height="40.534823774765385" width="40.52965428827353" class="icon-icon-0" data-fill-palette-color="accent" id="SvgjsSvg1000"></svg></g></svg></g><g></g></svg></g></svg></g></svg></g><defs><mask></mask></defs></svg></g></mask><linearGradient x1="0" x2="1" y1="0.5" y2="0.5" id="38ad88aa-02f4-458d-80aa-ad6f47f699d5"><stop stop-color="#f00b51" offset="0"></stop><stop stop-color="#730062" offset="1"></stop></linearGradient><rect width="320" height="360" fill="url(#38ad88aa-02f4-458d-80aa-ad6f47f699d5)" mask="url(#4ad435c7-4dd2-424a-916e-7ca72d1ca98d)" data-fill-palette-color="primary"></rect><mask id="17c34b7f-f84b-4a74-ad34-a886368353e6"><g id="SvgjsG1013"><svg viewBox="0 0 320 360" height="360" width="320"><g><svg></svg></g><g><svg viewBox="0 0 320 360" height="360" width="320"><g></g><g transform="matrix(1,0,0,1,64,142.927296)"><svg viewBox="0 0 192 74.145408" height="74.145408" width="192"><g><svg viewBox="0 0 192 74.145408" height="74.145408" width="192"><g transform="matrix(1,0,0,1,0,44.814855340980195)"><svg viewBox="0 0 192 29.330552659019812" height="29.330552659019812" width="192"><g id="SvgjsG1012"><svg viewBox="0 0 192 29.330552659019812" height="29.330552659019812" width="192" id="SvgjsSvg1011"><g><svg viewBox="0 0 192 29.330552659019812" height="29.330552659019812" width="192"><g transform="matrix(1,0,0,1,0,0)"><svg width="192" viewBox="2.759999990463257 -37.959999084472656 327.75 50.06999969482422" height="29.330552659019812" data-palette-color="url(#38ad88aa-02f4-458d-80aa-ad6f47f699d5)"></svg></g></svg></g></svg></g></svg></g><g transform="matrix(1,0,0,1,75.73517285586324,0)"><svg viewBox="0 0 40.52965428827353 40.534823774765385" height="40.534823774765385" width="40.52965428827353"><g><svg xmlns="http://www.w3.org/2000/svg" xmlns:xlink="http://www.w3.org/1999/xlink" version="1.1" x="0" y="0" viewBox="0.46199989318847656 0.34700000286102295 47.07499694824219 47.08100128173828" enable-background="new 0 0 48 48" xml:space="preserve" height="40.534823774765385" width="40.52965428827353" class="icon-icon-0" data-fill-palette-color="accent" id="SvgjsSvg1010"><path d="M24 47.424c0.008 0 0.015 0 0.022 0 0.01 0 0.02 0.004 0.029 0.004 0.001 0 0.001 0 0.002 0s0.001 0 0.001 0c0.015 0 0.03-0.006 0.045-0.006 12.933-0.055 23.438-10.59 23.438-23.537 0-12.915-10.456-23.43-23.347-23.533-0.005 0-0.011 0-0.015 0C24.117 0.351 24.06 0.347 24 0.347c-12.979 0-23.538 10.56-23.538 23.538C0.462 36.865 11.021 47.424 24 47.424zM44.374 23.885c0 2.675-0.523 5.228-1.466 7.57-1.109-0.391-2.838-0.938-5.087-1.461 0.467-1.98 0.725-4.025 0.725-6.109 0-2.11-0.265-4.183-0.744-6.188 1.665-0.393 3.36-0.871 5.085-1.439C43.842 18.615 44.374 21.189 44.374 23.885zM35.381 23.885c0 1.869-0.235 3.703-0.66 5.476-2.625-0.463-5.707-0.818-9.138-0.896v-9.169c2.859-0.078 5.917-0.371 9.122-0.951C35.141 20.138 35.381 21.994 35.381 23.885zM22.418 42.912c-3.653-2.662-6.427-6.299-8.052-10.436 2.816-0.48 5.512-0.721 8.052-0.793V42.912zM25.583 42.986V31.68c3.041 0.076 5.792 0.381 8.166 0.775C32.11 36.641 29.295 40.313 25.583 42.986zM25.583 16.092V4.785c3.705 2.67 6.518 6.335 8.159 10.511C30.886 15.784 28.153 16.024 25.583 16.092zM22.418 4.859v11.232c-3-0.082-5.714-0.385-8.061-0.774C15.98 11.171 18.758 7.527 22.418 4.859zM22.418 19.3v9.176c-2.83 0.082-5.852 0.369-9.018 0.943-0.435-1.791-0.674-3.645-0.674-5.535 0-1.869 0.234-3.703 0.66-5.478C15.986 18.865 19.027 19.217 22.418 19.3zM10.304 30.066c-1.695 0.4-3.424 0.889-5.18 1.473-0.963-2.365-1.497-4.947-1.497-7.654 0-2.688 0.527-5.252 1.478-7.604 1.102 0.393 2.868 0.955 5.181 1.494-0.467 1.98-0.724 4.025-0.724 6.109C9.562 25.994 9.825 28.063 10.304 30.066zM6.555 34.396c1.58-0.51 3.137-0.932 4.667-1.283 1.434 3.883 3.756 7.396 6.792 10.246C13.187 41.873 9.12 38.639 6.555 34.396zM30.149 43.309c3.021-2.852 5.329-6.361 6.752-10.238 1.974 0.445 3.53 0.906 4.584 1.258C38.952 38.555 34.931 41.791 30.149 43.309zM41.464 13.405c-1.549 0.497-3.076 0.91-4.578 1.255-1.425-3.86-3.727-7.355-6.736-10.197C34.916 5.975 38.929 9.197 41.464 13.405zM18.015 4.411c-3.049 2.861-5.378 6.39-6.81 10.291-2.03-0.457-3.62-0.935-4.674-1.287C9.095 9.153 13.172 5.903 18.015 4.411z" fill="white"></path></svg></g></svg></g><g></g></svg></g></svg></g></svg></g><defs><mask></mask></defs><mask><g id="SvgjsG1009"><svg viewBox="0 0 320 360" height="360" width="320"><g><svg></svg></g><g><svg viewBox="0 0 320 360" height="360" width="320"><g></g><g transform="matrix(1,0,0,1,64,142.927296)"><svg viewBox="0 0 192 74.145408" height="74.145408" width="192"><g><svg viewBox="0 0 192 74.145408" height="74.145408" width="192"><g transform="matrix(1,0,0,1,0,44.814855340980195)"><svg viewBox="0 0 192 29.330552659019812" height="29.330552659019812" width="192"><g id="SvgjsG1008"><svg viewBox="0 0 192 29.330552659019812" height="29.330552659019812" width="192" id="SvgjsSvg1007"><g><svg viewBox="0 0 192 29.330552659019812" height="29.330552659019812" width="192"><g transform="matrix(1,0,0,1,0,0)"><svg width="192" viewBox="2.759999990463257 -37.959999084472656 327.75 50.06999969482422" height="29.330552659019812" data-palette-color="url(#38ad88aa-02f4-458d-80aa-ad6f47f699d5)"></svg></g></svg></g></svg></g></svg></g><g transform="matrix(1,0,0,1,75.73517285586324,0)"><svg viewBox="0 0 40.52965428827353 40.534823774765385" height="40.534823774765385" width="40.52965428827353"><g><svg xmlns="http://www.w3.org/2000/svg" xmlns:xlink="http://www.w3.org/1999/xlink" version="1.1" x="0" y="0" viewBox="0.46199989318847656 0.34700000286102295 47.07499694824219 47.08100128173828" enable-background="new 0 0 48 48" xml:space="preserve" height="40.534823774765385" width="40.52965428827353" class="icon-icon-0" data-fill-palette-color="accent" id="SvgjsSvg1005"></svg></g></svg></g><g></g></svg></g></svg></g></svg></g><defs><mask></mask></defs></svg></g></mask></svg></g></mask><linearGradient x1="0" x2="1" y1="0.5" y2="0.5" id="4ac29eb9-ac1c-43fd-a435-28f03827b9a7"><stop stop-color="#f00b51" offset="0"></stop><stop stop-color="#730062" offset="1"></stop></linearGradient><rect width="320" height="360" fill="url(#4ac29eb9-ac1c-43fd-a435-28f03827b9a7)" mask="url(#17c34b7f-f84b-4a74-ad34-a886368353e6)" data-fill-palette-color="accent"></rect></svg><rect width="320" height="360" fill="none" stroke="none" visibility="hidden"></rect></g></svg></g></svg>